<svg width="299.601" height="42.201" viewBox="0 0 299.601 42.201" xmlns="http://www.w3.org/2000/svg"><g id="svgGroup" stroke-linecap="round" fill-rule="evenodd" font-size="9pt" stroke="#000" stroke-width="0.2mm" fill="#000000" style="stroke:#000;stroke-width:0.2mm;fill:#000000"><path d="M 79.801 41.201 L 55.901 41.201 L 55.901 1.001 L 79.801 1.001 L 79.801 4.001 L 58.901 4.001 L 58.901 7.601 L 79.801 7.601 L 79.801 10.601 L 58.901 10.601 L 58.901 16.301 L 76.601 16.301 L 76.601 19.301 L 58.901 19.301 L 58.901 22.901 L 76.601 22.901 L 76.601 25.901 L 58.901 25.901 L 58.901 31.601 L 79.801 31.601 L 79.801 34.601 L 58.901 34.601 L 58.901 38.201 L 79.801 38.201 L 79.801 41.201 Z M 39.601 9.001 L 37.201 10.701 Q 34.701 7.201 30.701 5.101 A 18.432 18.432 0 0 0 23.691 3.087 A 22.461 22.461 0 0 0 21.701 3.001 A 20.104 20.104 0 0 0 15.491 3.937 A 18.047 18.047 0 0 0 12.151 5.401 Q 7.901 7.801 5.451 11.851 A 17.062 17.062 0 0 0 3.064 19.464 A 20.974 20.974 0 0 0 3.001 21.101 A 18.227 18.227 0 0 0 4.107 27.502 A 16.978 16.978 0 0 0 5.451 30.301 Q 7.901 34.401 12.151 36.801 A 18.729 18.729 0 0 0 20.382 39.162 A 22.575 22.575 0 0 0 21.701 39.201 A 20.052 20.052 0 0 0 28.41 38.105 A 18.16 18.16 0 0 0 32.501 36.051 Q 37.201 32.901 39.201 27.801 L 23.601 27.801 L 23.601 24.801 L 42.301 24.801 L 42.301 27.801 Q 40.201 34.201 34.651 38.201 A 21.236 21.236 0 0 1 23.129 42.162 A 26.422 26.422 0 0 1 21.701 42.201 A 22.881 22.881 0 0 1 14.545 41.107 A 20.697 20.697 0 0 1 10.701 39.401 Q 5.801 36.601 2.901 31.801 A 20.281 20.281 0 0 1 0.001 21.147 A 23.9 23.9 0 0 1 0.001 21.101 A 21.231 21.231 0 0 1 1.13 14.099 A 19.317 19.317 0 0 1 2.901 10.351 Q 5.801 5.601 10.701 2.801 A 21.437 21.437 0 0 1 20.381 0.034 A 25.758 25.758 0 0 1 21.701 0.001 A 22.973 22.973 0 0 1 29.066 1.159 A 21.088 21.088 0 0 1 32.101 2.451 A 20.779 20.779 0 0 1 37.876 6.825 A 19.412 19.412 0 0 1 39.601 9.001 Z M 118.501 34.601 L 85.601 34.601 L 85.601 31.601 L 105.401 10.601 L 109.501 10.601 L 89.701 31.601 L 94.601 31.601 L 114.401 10.601 L 85.601 10.601 L 85.601 7.601 L 118.501 7.601 L 118.501 10.601 L 98.701 31.601 L 118.501 31.601 L 118.501 34.601 Z M 204.301 41.201 L 201.301 41.201 L 201.301 1.001 L 204.301 1.001 L 221.501 24.901 L 221.501 1.001 L 224.501 1.001 L 224.501 41.201 L 221.501 41.201 L 204.301 17.301 L 204.301 41.201 Z M 171.601 41.201 L 150.701 41.201 L 150.701 1.001 L 153.701 1.001 L 153.701 31.601 L 171.601 31.601 L 171.601 34.601 L 153.701 34.601 L 153.701 38.201 L 171.601 38.201 L 171.601 41.201 Z M 266.601 41.201 L 245.701 41.201 L 245.701 1.001 L 248.701 1.001 L 248.701 31.601 L 266.601 31.601 L 266.601 34.601 L 248.701 34.601 L 248.701 38.201 L 266.601 38.201 L 266.601 41.201 Z M 299.601 41.201 L 278.701 41.201 L 278.701 1.001 L 281.701 1.001 L 281.701 31.601 L 299.601 31.601 L 299.601 34.601 L 281.701 34.601 L 281.701 38.201 L 299.601 38.201 L 299.601 41.201 Z M 34.201 12.701 L 31.701 14.401 A 11.281 11.281 0 0 0 23.47 9.695 A 16.023 16.023 0 0 0 21.701 9.601 A 13.669 13.669 0 0 0 17.365 10.262 A 11.533 11.533 0 0 0 13.051 12.851 A 10.774 10.774 0 0 0 9.606 20.713 A 14.202 14.202 0 0 0 9.601 21.101 A 11.421 11.421 0 0 0 10.546 25.792 A 11.049 11.049 0 0 0 13.051 29.301 A 11.789 11.789 0 0 0 20.663 32.567 A 15.59 15.59 0 0 0 21.701 32.601 Q 28.201 32.601 31.701 27.801 L 35.201 27.801 Q 33.301 31.301 29.751 33.451 A 14.952 14.952 0 0 1 22.811 35.567 A 18.13 18.13 0 0 1 21.701 35.601 A 16.665 16.665 0 0 1 17.03 34.966 A 14.46 14.46 0 0 1 14.001 33.701 Q 10.601 31.801 8.601 28.501 A 13.914 13.914 0 0 1 6.605 21.483 A 16.585 16.585 0 0 1 6.601 21.101 A 14.436 14.436 0 0 1 7.546 15.841 A 13.602 13.602 0 0 1 8.601 13.701 Q 10.601 10.401 14.001 8.501 A 15.038 15.038 0 0 1 20.12 6.667 A 18.396 18.396 0 0 1 21.701 6.601 A 16.74 16.74 0 0 1 26.353 7.229 A 14.725 14.725 0 0 1 28.951 8.251 A 14.518 14.518 0 0 1 33.266 11.531 A 13.84 13.84 0 0 1 34.201 12.701 Z M 231.101 41.201 L 228.101 41.201 L 228.101 1.001 L 231.101 1.001 L 231.101 41.201 Z M 52.301 41.201 L 49.301 41.201 L 49.301 1.001 L 52.301 1.001 L 52.301 41.201 Z M 136.101 41.201 L 133.101 41.201 L 133.101 1.001 L 136.101 1.001 L 136.101 41.201 Z M 129.501 41.201 L 126.501 41.201 L 126.501 1.001 L 129.501 1.001 L 129.501 41.201 Z M 147.101 41.201 L 144.101 41.201 L 144.101 1.001 L 147.101 1.001 L 147.101 41.201 Z M 186.701 41.201 L 183.701 41.201 L 183.701 1.001 L 186.701 1.001 L 186.701 41.201 Z M 180.101 41.201 L 177.101 41.201 L 177.101 1.001 L 180.101 1.001 L 180.101 41.201 Z M 197.701 41.201 L 194.701 41.201 L 194.701 1.001 L 197.701 1.001 L 197.701 41.201 Z M 242.101 41.201 L 239.101 41.201 L 239.101 1.001 L 242.101 1.001 L 242.101 41.201 Z M 275.101 41.201 L 272.101 41.201 L 272.101 1.001 L 275.101 1.001 L 275.101 41.201 Z M 118.501 4.001 L 85.601 4.001 L 85.601 1.001 L 118.501 1.001 L 118.501 4.001 Z M 118.501 41.201 L 85.601 41.201 L 85.601 38.201 L 118.501 38.201 L 118.501 41.201 Z M 221.501 36.101 L 221.501 30.001 L 204.301 6.101 L 204.301 12.201 L 221.501 36.101 Z M 42.301 21.201 L 23.601 21.201 L 23.601 18.201 L 42.301 18.201 L 42.301 21.201 Z" vector-effect="non-scaling-stroke"/></g></svg>